Coordinates
version=1
nRows=22
nColumns=24
inDegrees=yes

Units are S.I. units (second, meters, Newtons, ...)
Angles are in degrees.

endheader
time	pelvis_tilt	pelvis_list	pelvis_rotation	pelvis_tx	pelvis_ty	pelvis_tz	hip_flexion_r	hip_adduction_r	hip_rotation_r	knee_angle_r	ankle_angle_r	subtalar_angle_r	mtp_angle_r	hip_flexion_l	hip_adduction_l	hip_rotation_l	knee_angle_l	ankle_angle_l	subtalar_angle_l	mtp_angle_l	lumbar_extension	lumbar_bending	lumbar_rotation
      5.02000000	      1.29267052	      4.13138249	    -10.77770948	      1.58015806	      1.05473976	     -0.23505406	     12.09631838	     -6.13869448	      2.13679808	    -61.91637849	    -17.92138534	    -31.29614404	      0.00000000	      9.26585086	      7.91208961	     -9.90413067	    -15.30549393	     10.85672234	    -15.45603800	      0.00000000	    -10.73645209	     -6.12930628	     -1.23085233
      5.03000000	      1.19048314	      3.43208077	    -10.90188956	      1.59614760	      1.05775774	     -0.23581616	     13.54986862	     -4.81994000	      2.86504425	    -61.39178016	    -16.15458772	    -31.88509783	      0.00000000	      7.70249756	      7.59181739	     -9.13462888	    -14.12423872	     10.63570130	    -16.18845297	      0.00000000	    -10.79020777	     -4.99728706	     -2.16124385
      5.04000000	      1.05544427	      2.73931628	    -10.92587859	      1.61210111	      1.06055688	     -0.23666524	     14.91214387	     -3.57130902	      3.35549558	    -60.52359221	    -14.61835875	    -32.52262938	      0.00000000	      6.14185593	      7.27665725	     -8.26539016	    -12.87466892	     10.28799110	    -17.01147736	      0.00000000	    -10.83016199	     -3.86212310	     -3.15244133
      5.05000000	      0.89721714	      2.09013822	    -10.88948703	      1.62800918	      1.06307884	     -0.23751994	     16.19694326	     -2.42788031	      3.67332088	    -59.33810259	    -13.25976792	    -33.13972820	      0.00000000	      4.59003988	      6.98894349	     -7.36598486	    -11.57060653	      9.80393116	    -17.91487014	      0.00000000	    -10.85358485	     -2.78404560	     -4.16255925
      5.06000000	      0.72835293	      1.51422089	    -10.81091318	      1.64386819	      1.06528783	     -0.23830814	     17.40401564	     -1.41355123	      3.86596597	    -57.85558235	    -12.05878682	    -33.69007654	      0.00000000	      3.04915572	      6.74820126	     -6.50997852	    -10.23010668	      9.19648241	    -18.82096206	      0.00000000	    -10.86429821	     -1.81312430	     -5.16737858
      5.07000000	      0.61094986	      1.04044824	    -10.68299225	      1.65968732	      1.06721342	     -0.23902744	     18.47367706	     -0.57503525	      3.94549450	    -56.09138047	    -11.00266827	    -34.14232262	      0.00000000	      1.46744574	      6.59186297	     -5.74204633	     -8.87393236	      8.59848722	    -19.58478208	      0.00000000	    -10.92810353	     -0.99577036	     -6.18714731
      5.08000000	      0.52362729	      0.68698263	    -10.52979213	      1.67547682	      1.06880516	     -0.23962665	     19.43524412	      0.08501126	      3.95248984	    -54.06184100	    -10.07183635	    -34.43485209	      0.00000000	     -0.13314725	      6.53534721	     -5.05650864	     -7.49591395	      7.88548149	    -20.31708844	      0.00000000	    -11.00616118	     -0.35641590	     -7.17788595
      5.09000000	      0.44991496	      0.46046395	    -10.33256705	      1.69124398	      1.07001990	     -0.24011916	     20.30677844	      0.55961022	      3.87394537	    -51.78218671	     -9.24385071	    -34.52433539	      0.00000000	     -1.74127539	      6.58483881	     -4.37112871	     -6.09052881	      7.08694026	    -21.05542612	      0.00000000	    -11.07418035	      0.09676910	     -8.14750222
      5.10000000	      0.51915422	      0.36789134	    -10.07541071	      1.70703534	      1.07101024	     -0.24052282	     20.94279659	      0.81253251	      3.70215302	    -49.25509514	     -8.46540458	    -34.38040144	      0.00000000	     -3.48075581	      6.76129328	     -3.86134281	     -4.68160566	      6.32961298	    -21.50766456	      0.00000000	    -11.28297102	      0.33430363	     -9.15374292
      5.11000000	      0.71744299	      0.38399414	     -9.76710484	      1.72288429	      1.07177237	     -0.24083348	     21.34213586	      0.88788085	      3.45501546	    -46.47365960	     -7.81694246	    -34.10062940	      0.00000000	     -5.33354545	      7.03400901	     -3.60898793	     -3.29255627	      5.79607372	    -21.42223441	      0.00000000	    -11.61439671	      0.39607120	    -10.14229065
      5.12000000	      0.92315463	      0.54841871	     -9.39389722	      1.73880738	      1.07208850	     -0.24113913	     21.67261989	      0.73870059	      3.05136233	    -43.51583649	     -6.80158000	    -33.07185251	      0.00000000	     -7.20498177	      7.43274294	     -3.23573883	     -1.85750494	      4.92889980	    -21.65468759	      0.00000000	    -11.91279754	      0.26355284	    -11.19211709
      5.13000000	      1.23605287	      0.75073180	     -8.95567120	      1.75489674	      1.07215394	     -0.24141066	     21.75546371	      0.49816846	      2.53683806	    -40.30407994	     -5.83303591	    -31.88938130	      0.00000000	     -9.17506664	      7.84364601	     -3.08874976	     -0.47491441	      4.31542389	    -21.37016460	      0.00000000	    -12.30922530	      0.05993551	    -12.24932805
      5.14000000	      1.51702205	      1.10164007	     -8.44548703	      1.77113362	      1.07172107	     -0.24174201	     21.81375909	      0.04739706	      1.82684718	    -36.96126480	     -4.45445473	    -29.91589071	      0.00000000	    -11.08263956	      8.35708039	     -2.87430316	      0.84320225	      3.77507432	    -20.91371627	      0.00000000	    -12.62381525	     -0.31319839	    -13.33897143
      5.15000000	      1.81878620	      1.42411057	     -7.88908861	      1.78759922	      1.07094456	     -0.24207714	     21.71390823	     -0.39628476	      0.96389314	    -33.42242228	     -2.93409976	    -27.44326458	      0.00000000	    -12.99147220	      8.79287502	     -2.73634379	      2.06053356	      3.30504392	    -20.28730026	      0.00000000	    -12.94804764	     -0.65246791	    -14.42323193
      5.16000000	      1.98688457	      1.85845569	     -7.25579345	      1.80424488	      1.06958702	     -0.24248317	     21.69896253	     -0.97167062	     -0.10836753	    -29.81815845	     -1.10463213	    -24.22577626	      0.00000000	    -14.69300989	      9.25550592	     -2.39122770	      3.10750403	      2.96839238	    -19.58695713	      0.00000000	    -13.08401850	     -1.10335397	    -15.54343887
      5.17000000	      2.13142379	      2.22926000	     -6.59047796	      1.82110958	      1.06788841	     -0.24288194	     21.58932659	     -1.46545028	     -1.29812112	    -26.10779591	      0.73308865	    -20.51677630	      0.00000000	    -16.31882103	      9.58159481	     -1.92971264	      3.98398337	      2.63220090	    -18.98381016	      0.00000000	    -13.19745722	     -1.47759252	    -16.62603767
      5.18000000	      2.13692894	      2.62879886	     -5.85822695	      1.83814108	      1.06572504	     -0.24331816	     21.56176522	     -1.96052467	     -2.56858729	    -22.40162887	      2.54043430	    -16.41122399	      0.00000000	    -17.71958530	      9.83229157	     -1.14589824	      4.65174060	      2.36845099	    -18.53319384	      0.00000000	    -13.14567848	     -1.86775983	    -17.72175721
      5.19000000	      2.05314757	      3.00962016	     -5.08969012	      1.85529922	      1.06324837	     -0.24372478	     21.55512510	     -2.38312445	     -3.74153494	    -18.72455416	      4.12171239	    -12.24328344	      0.00000000	    -18.93822344	      9.97220939	     -0.10143461	      5.10413865	      2.08837468	    -18.31723991	      0.00000000	    -13.00721252	     -2.24177448	    -18.80127506
      5.20000000	      1.90543797	      3.37198439	     -4.29735165	      1.87253211	      1.06056149	     -0.24409451	     21.54284633	     -2.72468433	     -4.59801119	    -15.11067691	      5.30165022	     -8.46269682	      0.00000000	    -20.00736482	     10.00997172	      1.24928135	      5.36594226	      1.79230812	    -18.36280414	      0.00000000	    -12.82532165	     -2.60081330	    -19.82373215
      5.21000000	      1.81625380	      3.65966981	     -3.49918676	      1.88985876	      1.05790245	     -0.24441045	     21.35694475	     -2.93296290	     -4.82917051	    -11.55816669	      6.02184864	     -5.65656279	      0.00000000	    -21.05764643	      9.91846546	      2.68643318	      5.45819469	      1.45175322	    -18.54381265	      0.00000000	    -12.74688635	     -2.88184014	    -20.82125055
      5.22000000	      1.72364983	      3.97672347	     -2.71726665	      1.90721849	      1.05523351	     -0.24469252	     21.09864325	     -3.14530583	     -4.28335420	     -8.15794262	      6.19034355	     -4.22136153	      0.00000000	    -22.02854869	      9.81150762	      4.31100762	      5.40910371	      1.00205405	    -18.89981615	      0.00000000	    -12.69239519	     -3.20552965	    -21.73922876
      5.23000000	      1.71970511	      4.29212554	     -1.97140952	      1.92467630	      1.05275030	     -0.24498639	     20.68755035	     -3.38766511	     -3.02378713	     -5.01685165	      5.97238207	     -4.27185603	      0.00000000	    -23.00421224	      9.69796267	      5.78455985	      5.20839893	      0.56671142	    -19.09574320	      0.00000000	    -12.76256151	     -3.51753859	    -22.63284443
